<svg width="300" height="420" viewBox="0 0 300 420" fill="none" xmlns="http://www.w3.org/2000/svg">
  <path d="M150 398C68 398 26 307 26 231C26 140 89 24 150 24C211 24 274 140 274 231C274 307 232 398 150 398Z" fill="#FFC6D8"/>
  <path d="M54 206C94 183 126 179 158 193C195 209 224 205 255 188V227C226 242 195 246 160 233C126 219 96 221 54 243V206Z" fill="#FFF3F7"/>
  <path d="M47 279C87 256 123 252 155 266C193 281 224 278 257 259V297C225 317 191 320 155 305C122 291 89 290 47 317V279Z" fill="#FF8FB3"/>
</svg>
