<svg width="300" height="420" viewBox="0 0 300 420" fill="none" xmlns="http://www.w3.org/2000/svg">
  <path d="M150 398C68 398 26 307 26 231C26 140 89 24 150 24C211 24 274 140 274 231C274 307 232 398 150 398Z" fill="#B8E6F7"/>
  <path d="M48 208C86 188 122 184 158 199C189 212 223 209 252 193V232C219 249 186 251 152 238C118 224 85 226 48 247V208Z" fill="#F0FCFF"/>
  <path d="M47 283C81 264 118 257 155 270C189 282 220 281 257 264V304C220 322 185 324 150 312C117 300 84 300 47 319V283Z" fill="#6CCCE7"/>
</svg>
